<?xml version="1.0" encoding="utf-8"?>
<!-- Generator: Adobe Illustrator 22.1.0, SVG Export Plug-In . SVG Version: 6.00 Build 0)  -->
<svg version="1.1" id="Layer_1" xmlns="http://www.w3.org/2000/svg" xmlns:xlink="http://www.w3.org/1999/xlink" x="0px" y="0px"
	 viewBox="0 0 32 32" style="enable-background:new 0 0 32 32;" xml:space="preserve">
<title>next-js</title>
<path d="M23.7,30C23.6,30.1,23.6,30.1,23.7,30C23.8,30,23.8,30,23.7,30C23.8,29.9,23.8,29.9,23.7,30z M24,29.9
	C23.9,29.9,23.9,29.9,24,29.9C24,29.9,24.1,29.9,24,29.9C24.1,29.8,24.1,29.8,24,29.9z M24.1,29.8C24.1,29.8,24.1,29.8,24.1,29.8
	C24.2,29.8,24.2,29.8,24.1,29.8C24.2,29.7,24.2,29.7,24.1,29.8z M24.3,29.7C24.2,29.7,24.2,29.7,24.3,29.7
	C24.3,29.7,24.4,29.7,24.3,29.7C24.4,29.6,24.4,29.6,24.3,29.7z M24.5,29.5C24.4,29.6,24.4,29.7,24.5,29.5c0,0,0.1-0.1,0.1-0.1
	C24.6,29.5,24.6,29.5,24.5,29.5L24.5,29.5z M15,0c-0.1,0-0.3,0-0.5,0C9.9,0.5,5.7,2.9,3,6.7c-1.5,2.1-2.5,4.5-2.8,7
	C0,14.6,0,14.8,0,16c0,1.2,0,1.4,0.1,2.3c0.9,6,5.1,11.1,10.9,12.9c1,0.3,2.1,0.6,3.4,0.7C15,32,17,32,17.5,32
	c2.2-0.2,4-0.8,5.8-1.7c0.3-0.1,0.3-0.2,0.3-0.2c-0.9-1.2-1.7-2.3-2.6-3.5l-2.6-3.5l-3.2-4.7c-1.1-1.6-2.1-3.2-3.2-4.7
	c0,0,0,2.1,0,4.7c0,4.5,0,4.7-0.1,4.8c-0.1,0.1-0.2,0.2-0.3,0.3c-0.1,0-0.2,0.1-0.7,0.1h-0.5l-0.1-0.1c-0.1-0.1-0.2-0.1-0.2-0.2
	L10,23l0-6.3l0-6.3l0.1-0.1c0.1-0.1,0.1-0.1,0.2-0.2c0.1-0.1,0.2-0.1,0.7-0.1c0.6,0,0.7,0,0.9,0.2c1.3,1.9,2.6,3.9,3.9,5.8
	c2.1,3.2,4.9,7.5,6.3,9.6l2.5,3.8l0.1-0.1c1.2-0.8,2.3-1.8,3.3-2.9c2-2.3,3.3-5.1,3.8-8.2C32,17.5,32,17.2,32,16
	c0-1.2,0-1.4-0.1-2.3C31,7.7,26.7,2.6,20.9,0.8c-1.1-0.3-2.2-0.6-3.3-0.7C17.3,0,15.2,0,15,0L15,0z M21.5,9.7
	c0.2,0.1,0.3,0.2,0.3,0.4c0,0.1,0,1.8,0,5.7l0,5.6l-1-1.5l-1-1.5v-4.1c0-2.6,0-4.1,0-4.2c0-0.2,0.2-0.3,0.3-0.4
	c0.1-0.1,0.2-0.1,0.7-0.1C21.3,9.6,21.4,9.6,21.5,9.7L21.5,9.7z"/>
</svg>
